<?xml version="1.0" encoding="UTF-8"?> <!-- Generator: Adobe Illustrator 22.0.1, SVG Export Plug-In . SVG Version: 6.00 Build 0) --> <svg xmlns="http://www.w3.org/2000/svg" xmlns:xlink="http://www.w3.org/1999/xlink" id="hubraum_LOGO" x="0px" y="0px" viewBox="0 0 594.8 232.4" style="enable-background:new 0 0 594.8 232.4;" xml:space="preserve"> <style type="text/css"> .st0{fill:#1D1D1B;} .st1{fill:#FF0074;} </style> <g> <path class="st0" d="M68.8,123.1h19.3V79.8c0-4.4-0.4-8.3-1.2-11.9c-0.8-3.6-2.1-6.6-4-9.1c-1.9-2.5-4.5-4.4-7.8-5.8 c-3.3-1.4-7.6-2.1-12.7-2.1c-3.6,0-7.3,0.9-11.2,2.8c-3.8,1.9-6.9,4.8-9.4,8.9h-0.4V25.9H22.1v97.1h19.3V86.2 c0-7.2,1.2-12.3,3.5-15.4c2.4-3.1,6.2-4.7,11.4-4.7c4.6,0,7.8,1.4,9.7,4.3c1.8,2.9,2.7,7.2,2.7,13V123.1z"></path> <path class="st0" d="M145.3,89.6c0,7.2-1.2,12.3-3.5,15.4c-2.4,3.1-6.2,4.7-11.4,4.7c-4.6,0-7.8-1.4-9.7-4.3 c-1.8-2.9-2.7-7.2-2.7-13V52.7H98.6V96c0,4.3,0.4,8.3,1.2,11.9c0.8,3.6,2.1,6.6,4,9.1c1.9,2.5,4.5,4.4,7.8,5.8 c3.3,1.4,7.6,2,12.7,2c4.1,0,8.1-0.9,12-2.7c3.9-1.8,7.1-4.8,9.5-8.8h0.4v9.8h18.4V52.7h-19.3V89.6z"></path> <path class="st0" d="M238.2,116c2.8-3,5-6.8,6.7-11.5c1.7-4.7,2.6-10.2,2.6-16.7c0-6.4-0.9-12-2.6-16.7c-1.7-4.7-4-8.5-6.7-11.5 c-2.8-3-5.9-5.2-9.3-6.7c-3.4-1.4-6.9-2.2-10.5-2.2c-4.4,0-8.6,0.8-12.6,2.5c-4,1.7-7.2,4.3-9.6,8H196V25.9h-19.3v97.1H195v-9h0.3 c2.1,3.9,5.2,6.7,9.3,8.3c4.1,1.6,8.7,2.4,13.9,2.4c3.5,0,7-0.7,10.5-2.2C232.3,121.2,235.4,119,238.2,116z M227.3,96.4 c-0.6,2.7-1.6,5.1-3,7.2c-1.4,2.1-3.1,3.7-5.1,5c-2,1.2-4.5,1.8-7.4,1.8c-2.8,0-5.3-0.6-7.3-1.8c-2.1-1.2-3.8-2.9-5.2-5 c-1.4-2.1-2.4-4.5-3-7.2c-0.6-2.7-1-5.5-1-8.4c0-3,0.3-5.8,1-8.6c0.6-2.7,1.6-5.1,3-7.2c1.4-2.1,3.1-3.7,5.2-5 c2.1-1.2,4.5-1.8,7.3-1.8c2.9,0,5.4,0.6,7.4,1.8c2,1.2,3.7,2.9,5.1,5c1.4,2.1,2.4,4.5,3,7.2c0.6,2.7,1,5.6,1,8.6 C228.2,90.9,227.9,93.7,227.3,96.4z"></path> <rect x="257.6" y="101.7" class="st1" width="21.7" height="21.3"></rect> <rect x="257.6" y="52.8" class="st1" width="21.7" height="21.3"></rect> <path class="st0" d="M329.9,60.5v-8.6c-6.4-0.3-11.8,1.1-16.4,4.2c-4.6,3.1-8,7.5-10.1,13.2h-0.3V52.9h-7.9v70.2h8.6V85.7 c0-3.7,0.6-7.1,1.9-10.3c1.3-3.1,3.1-5.8,5.4-8.1c2.3-2.3,5.1-4,8.2-5.2C322.5,60.8,326,60.3,329.9,60.5z"></path> <path class="st0" d="M391,123.1c1.2,0,2.2,0,2.9-0.1c0.8-0.1,1.7-0.2,2.7-0.4v-7.2c-0.8,0.4-1.7,0.5-2.7,0.5c-3.4,0-5-1.7-5-5.2 V73.4c0-4.7-0.8-8.5-2.3-11.5c-1.5-2.9-3.5-5.2-6-6.9c-2.4-1.6-5.2-2.7-8.3-3.3c-3.1-0.6-6.2-0.9-9.3-0.9c-4.1,0-7.8,0.5-11.2,1.4 c-3.4,0.9-6.3,2.3-8.8,4.2c-2.5,1.9-4.5,4.4-5.9,7.3c-1.5,3-2.3,6.5-2.6,10.6h8.6c0.2-5.7,2-9.9,5.4-12.4c3.4-2.6,7.9-3.9,13.3-3.9 c2.5,0,4.9,0.2,7.1,0.6c2.2,0.4,4.2,1.2,5.9,2.2c1.7,1.1,3,2.6,3.9,4.4c1,1.9,1.4,4.2,1.4,7.1c0,1.9-0.3,3.4-0.7,4.6 c-0.5,1.2-1.2,2.1-2.1,2.8c-0.9,0.7-2,1.2-3.4,1.4c-1.4,0.3-3,0.5-4.8,0.7c-4.6,0.5-9.2,1.1-13.7,1.7c-4.5,0.6-8.5,1.6-12.1,3.1 c-3.6,1.5-6.5,3.6-8.6,6.3c-2.2,2.8-3.3,6.6-3.3,11.5c0,3.5,0.6,6.6,1.8,9.2c1.2,2.6,2.9,4.7,5,6.4c2.1,1.7,4.6,2.9,7.5,3.7 c2.9,0.8,5.9,1.2,9.2,1.2c3.4,0,6.4-0.3,8.9-1c2.5-0.6,4.7-1.5,6.7-2.7c2-1.2,3.7-2.6,5.3-4.4c1.6-1.8,3.2-3.8,4.7-6.1h0.3 c0,1.8,0.1,3.5,0.3,5c0.2,1.5,0.7,2.8,1.4,3.9c0.7,1.1,1.7,1.9,3.1,2.5C387.1,122.8,388.8,123.1,391,123.1z M380.2,95.9 c0,3.4-0.7,6.5-2,9.2c-1.3,2.7-3.1,5-5.3,6.9c-2.2,1.9-4.8,3.4-7.8,4.4c-3,1-6.1,1.5-9.4,1.5c-2,0-3.9-0.3-5.9-0.9 c-1.9-0.6-3.6-1.6-5-2.8c-1.5-1.2-2.6-2.7-3.5-4.4c-0.9-1.7-1.3-3.6-1.3-5.8c0-3.4,1-6.1,3.1-8c2-1.9,4.6-3.3,7.8-4.3 c3.2-1,6.7-1.7,10.5-2.2c3.9-0.5,7.6-1.1,11.2-1.7c1.2-0.2,2.5-0.5,4.1-1c1.5-0.5,2.6-1.2,3.1-2.2h0.3V95.9z"></path> <path class="st0" d="M460.1,123.1V52.9h-8.6v36.9c0,3.5-0.4,7-1.2,10.4c-0.8,3.4-2.1,6.4-3.8,9c-1.7,2.6-3.9,4.7-6.5,6.3 c-2.6,1.6-5.8,2.4-9.5,2.4c-6.8,0-11.6-1.6-14.4-4.9c-2.8-3.3-4.2-8.1-4.4-14.4V52.9h-8.6v45.6c0,4.2,0.5,7.9,1.4,11.2 c0.9,3.3,2.3,6,4.3,8.3c1.9,2.3,4.5,4,7.6,5.2c3.1,1.2,6.9,1.8,11.4,1.8c5.3,0,10-1.2,14.4-3.7c4.3-2.5,7.6-6.1,9.9-10.8h0.3v12.6 H460.1z"></path> <path class="st0" d="M563.6,123.1h8.6V75.5c0-16.4-7.8-24.6-23.3-24.6c-4.6,0-9,1.1-13.1,3.4c-4.1,2.3-7.2,5.7-9.3,10.3 c-1.3-4.6-3.8-8.1-7.5-10.3c-3.8-2.3-8-3.4-12.6-3.4c-5.7,0-10.4,1.2-14.1,3.7c-3.7,2.5-6.6,5.8-8.9,10.2H483V52.9h-7.9v70.2h8.6 V83.9c0-3.7,0.4-7.1,1.2-10.3c0.8-3.1,2.1-5.8,3.7-8.2c1.7-2.3,3.9-4.1,6.5-5.4c2.7-1.3,5.8-2,9.5-2c2.7,0,5,0.5,6.9,1.4 c1.9,0.9,3.4,2.2,4.6,3.7c1.1,1.6,1.9,3.4,2.4,5.6c0.5,2.1,0.7,4.4,0.7,6.7v47.6h8.6V83.3c0-3.3,0.3-6.4,0.9-9.5 c0.6-3,1.6-5.7,3.1-8.1c1.5-2.4,3.4-4.2,5.9-5.6c2.4-1.4,5.5-2.1,9.3-2.1c6.2,0,10.5,1.5,12.9,4.6c2.4,3,3.7,7.5,3.7,13.3V123.1z"></path> <polygon class="st1" points="469.6,182.9 463.9,182.9 458.2,182.9 458.2,194.2 469.6,194.2 "></polygon> <polygon class="st1" points="492.8,182.9 492.8,194.2 504.1,194.2 504.1,182.9 498.2,182.9 "></polygon> <polygon class="st1" points="526.8,182.9 526.8,194.2 538.2,194.2 538.2,182.9 532.5,182.9 "></polygon> <polygon class="st1" points="567,182.9 560.8,182.9 560.8,194.2 572.2,194.2 572.2,182.9 "></polygon> <path class="st1" d="M458.8,157.1l-0.6,19.8l3,0.5c0.6-5.8,2.1-10.1,4.6-13c2.6-2.9,6.3-4.5,10.9-4.6v41.3c0,3.6-0.5,6-1.6,7 c-0.9,0.9-2.4,1.5-4.5,1.7c-0.6,0.1-1.7,0.1-3.2,0.1v3.2H495v-3.2c-1.5,0-2.6,0-3.2-0.1c-2.1-0.2-3.6-0.8-4.5-1.7 c-1.1-1.1-1.6-3.4-1.6-7v-41.3c4.7,0.1,8.3,1.7,10.9,4.6c2.5,2.8,4,7.1,4.6,13l3-0.5l-0.6-19.8H458.8z"></path> <path class="st0" d="M30,167.5h-0.9l-4,5.3v4.5h-4.7v4.1h4.7v17.2c0,2.3,0.1,3.9,0.2,4.8c0.1,0.9,0.4,1.7,0.7,2.2 c1,1.6,3,2.4,6.1,2.4c1,0,2.2-0.1,3.5-0.4v-4c-1,0.3-1.9,0.4-2.6,0.4c-1.3,0-2.2-0.4-2.7-1.3c-0.3-0.4-0.4-1.6-0.4-3.5v-17.8h5.6 v-4.1H30V167.5z"></path> <path class="st0" d="M55.9,176.4c-3.9,0-6.9,1.5-9.1,4.6v-17.2h-4.9v43.6h4.9v-14.2c0-2.4,0.1-4.2,0.2-5.4c0.1-1.2,0.4-2.2,0.8-3 c1.4-3,3.7-4.5,7-4.5c2.5,0,4.2,0.9,5.1,2.6c0.6,1,0.9,2.8,0.9,5.5v19h4.9v-19.6c0-3.5-0.5-6-1.5-7.6 C62.6,177.7,59.8,176.4,55.9,176.4z"></path> <path class="st0" d="M96.8,184.7c-0.7-2.1-1.9-3.9-3.5-5.4c-2.2-2-5-2.9-8.3-2.9c-4,0-7.2,1.5-9.7,4.4c-2.4,3-3.6,6.8-3.6,11.4 c0,4.5,1.1,8.2,3.2,11.1c2.4,3.3,6,5,10.6,5c6.3,0,10.4-2.8,12.2-8.5h-5.5c-0.7,1.6-1.5,2.8-2.6,3.5c-1.1,0.7-2.5,1.1-4.2,1.1 c-3.6,0-6.1-1.8-7.5-5.5c-0.6-1.5-0.9-3.3-0.9-5.3h21C97.9,189.8,97.5,186.8,96.8,184.7z M77.1,189.7c0.3-2.3,0.8-4.2,1.7-5.7 c1.4-2.4,3.5-3.7,6.3-3.7c2.9,0,5.1,1.4,6.4,4.1c0.7,1.4,1.1,3.2,1.3,5.3H77.1z"></path> <rect x="121.7" y="163.8" class="st0" width="5.2" height="6.6"></rect> <rect x="121.7" y="177.3" class="st0" width="4.9" height="30.1"></rect> <path class="st0" d="M157.9,178.2c-1.6-1.2-3.7-1.8-6-1.8c-4.1,0-7.2,1.7-9.5,5v-4.1h-4.8v30.1h4.9v-14.6c0-3.6,0.3-6.2,1-7.8 c0.6-1.4,1.5-2.6,2.7-3.4c1.3-0.8,2.7-1.3,4.3-1.3c1.4,0,2.5,0.3,3.5,1c0.9,0.6,1.6,1.4,1.9,2.6c0.4,1.2,0.5,3.1,0.5,5.8v17.7h4.9 V188c0-2.8-0.3-4.9-0.8-6.3C160.1,180.3,159.2,179.1,157.9,178.2z"></path> <path class="st0" d="M188.5,200.9c-1.4,2.3-3.3,3.5-5.9,3.5c-2.7,0-4.8-1.1-6.3-3.2c-1.6-2.2-2.3-5.2-2.3-8.9 c0-3.6,0.8-6.6,2.4-8.8c1.5-2.1,3.6-3.2,6.2-3.2c2.3,0,4.1,0.9,5.4,2.6c0.7,1,1.3,2.3,1.6,3.9h5.3c-0.6-3.3-1.9-5.9-4.1-7.7 c-2.1-1.8-4.9-2.7-8.2-2.7c-4.4,0-7.9,1.7-10.3,5c-2.2,2.9-3.2,6.6-3.2,11c0,4.6,1.1,8.4,3.4,11.3c2.4,3.1,5.9,4.7,10.3,4.7 c4.4,0,7.7-1.7,10-5c1.4-2.1,2.2-4.3,2.2-6.6h-5.2C189.6,198.4,189.1,199.8,188.5,200.9z"></path> <path class="st0" d="M220.2,191.9c0,3.6-0.3,6.2-1,7.8c-0.6,1.4-1.5,2.6-2.7,3.4c-1.3,0.8-2.7,1.3-4.3,1.3c-1.4,0-2.5-0.3-3.5-1 c-0.9-0.6-1.6-1.4-1.9-2.6c-0.4-1.2-0.5-3.1-0.5-5.8v-17.7h-4.9v19.5c0,2,0.1,3.5,0.3,4.6c0.2,1.1,0.6,2.1,1.1,3 c1.6,2.6,4.4,3.9,8.2,3.9c3.9,0,7-1.7,9.4-5v4.1h4.7v-30.1h-4.9V191.9z"></path> <path class="st0" d="M248.3,176.4c-3.8,0-6.8,1.5-9,4.4v-17h-4.9v43.6h4.8v-3.6c2,3,5,4.6,8.9,4.6c3.8,0,6.9-1.4,9.2-4.1 c2.5-3,3.7-7,3.7-12c0-4.9-1.2-8.8-3.6-11.6C255.1,177.8,252.1,176.4,248.3,176.4z M253.9,201.2c-1.5,2.2-3.5,3.3-6,3.3 c-2.7,0-4.8-1.1-6.3-3.3c-1.5-2.2-2.2-5.2-2.2-9c0-3.8,0.8-6.8,2.5-8.9c1.6-1.9,3.6-2.9,6-2.9c2.5,0,4.5,1,6,3.1 c1.6,2.2,2.4,5.2,2.4,8.9C256.2,195.9,255.4,198.8,253.9,201.2z"></path> <path class="st0" d="M289.8,203.2c-0.1-0.3-0.2-1.2-0.2-2.7v-11.4c0-2.8-0.1-4.8-0.4-6c-0.2-1.2-0.7-2.2-1.5-3.1 c-1.9-2.4-5-3.5-9.1-3.5c-3.4,0-6.2,0.7-8.2,2c-1.1,0.7-1.9,1.5-2.4,2.5c-0.5,1-0.9,2.3-1.1,3.9l5.1,0c0.3-1.6,0.8-2.8,1.8-3.4 c0.9-0.6,2.4-1,4.5-1c2.3,0,4,0.5,5,1.5c1.1,1,1.6,2.6,1.6,4.8v2.8c-4.6,0.1-7.9,0.3-9.9,0.7c-2,0.4-3.8,1.1-5.3,2.1 c-2.5,1.7-3.8,4.1-3.8,7.3c0,2.8,1,5,3.1,6.7c1.7,1.4,3.8,2,6.2,2c4,0,7.2-1.8,9.7-5.5v0.9c0,1.3,0.4,2.4,1.2,3.2 c0.8,0.8,1.9,1.2,3.2,1.2c1.2,0,2.3-0.3,3.4-0.9v-3.8c-0.6,0.3-1.2,0.5-1.7,0.5C290.4,203.8,290,203.6,289.8,203.2z M284.9,194.5 c0,2.2-0.6,4.1-1.7,5.9c-0.8,1.3-1.8,2.3-3.1,3c-1.3,0.7-2.6,1.1-4.1,1.1c-1.5,0-2.8-0.5-3.8-1.4c-1-0.9-1.5-2.1-1.5-3.5 c0-1.6,0.6-2.9,1.8-4c1-0.9,2.5-1.6,4.5-2c1.9-0.4,4.5-0.6,7.9-0.8V194.5z"></path> <path class="st0" d="M305.2,167.5h-0.9l-4,5.3v4.5h-4.7v4.1h4.7v17.2c0,2.3,0.1,3.9,0.2,4.8c0.1,0.9,0.4,1.7,0.7,2.2 c1,1.6,3,2.4,6.1,2.4c1,0,2.2-0.1,3.5-0.4v-4c-1,0.3-1.9,0.4-2.6,0.4c-1.3,0-2.2-0.4-2.7-1.3c-0.3-0.4-0.4-1.6-0.4-3.5v-17.8h5.6 v-4.1h-5.6V167.5z"></path> <path class="st0" d="M328.3,176.4c-4.6,0-8.1,1.7-10.6,5c-2.1,2.8-3.2,6.4-3.2,10.7c0,4.9,1.2,8.8,3.5,11.7c2.5,3,6,4.5,10.5,4.5 c3.9,0,6.9-1.2,9.3-3.5c2.9-2.9,4.3-7.1,4.3-12.5c0-4.9-1.2-8.8-3.6-11.6C335.9,177.9,332.5,176.4,328.3,176.4z M334.2,201.9 c-1.4,1.7-3.4,2.5-5.8,2.5c-2.7,0-4.8-1-6.4-3c-1.7-2.2-2.6-5.3-2.6-9.3c0-3.7,0.9-6.7,2.7-8.9c1.6-2,3.6-2.9,6.2-2.9 c2.6,0,4.7,1,6.2,3c1.7,2.2,2.6,5.2,2.6,9C337.1,196.4,336.1,199.6,334.2,201.9z"></path> <path class="st0" d="M354.7,183v-5.7h-4.6v30.1h4.9v-10.8c0-3.5,0.2-6.1,0.5-7.7c0.4-1.7,1-3.1,2-4.3c1.6-1.9,4.7-2.8,7.2-2.8 c0.3,0,0.9,0,1.7,0.1v-5.5c-2.6,0-5.9,0.5-7.6,1.5C357.2,178.9,355.8,180.6,354.7,183z"></path> <path class="st0" d="M397.4,176.4c-4.6,0-8.1,1.7-10.6,5c-2.1,2.8-3.2,6.4-3.2,10.7c0,4.9,1.2,8.8,3.5,11.7c2.5,3,6,4.5,10.5,4.5 c3.9,0,6.9-1.2,9.3-3.5c2.9-2.9,4.3-7.1,4.3-12.5c0-4.9-1.2-8.8-3.6-11.6C404.9,177.9,401.6,176.4,397.4,176.4z M403.3,201.9 c-1.4,1.7-3.4,2.5-5.8,2.5c-2.7,0-4.8-1-6.4-3c-1.7-2.2-2.6-5.3-2.6-9.3c0-3.7,0.9-6.7,2.7-8.9c1.6-2,3.6-2.9,6.2-2.9 c2.6,0,4.7,1,6.2,3c1.7,2.2,2.6,5.2,2.6,9C406.2,196.4,405.2,199.6,403.3,201.9z"></path> <path class="st0" d="M420.5,166.3c-0.4,0.8-0.8,1.7-0.9,2.9c-0.2,1.2-0.3,2.9-0.3,5.2v2.9h-4.7v4.1h4.7v26h4.9v-26h5.4v-4.1h-5.4 v-4.5c0-2.2,0.3-3.7,0.8-4.5c0.5-0.8,1.5-1.2,2.8-1.2c0.7,0,1.6,0.2,2.6,0.6v-4.4c-1.2-0.3-2.3-0.4-3.3-0.4 C424,162.8,421.8,164,420.5,166.3z"></path> </g> </svg> 